<?xml version="1.0" encoding="UTF-8"?>
<svg width="512" height="512" enable-background="new" version="1.1" viewBox="0 0 135.47 135.47" xmlns="http://www.w3.org/2000/svg">
 <g>
  <path d="m110.35 24.714v54.627h-0.0415a11.376 11.376 0 0 1-11.357 11.014 11.376 11.376 0 0 1-11.362-11.014h-19.868a32.165 32.165 0 0 0 32.127 31.406 32.165 32.165 0 0 0 32.133-31.277h0.0791v-54.756z" fill="#00f" stroke-width=".39069"/>
  <circle cx="46.172" cy="67.439" r="21.21" fill="#0f0" stroke-width=".32936"/>
  <path d="m46.425 24.723a43.015 43.015 0 0 0-43.015 43.015 43.015 43.015 0 0 0 43.015 43.015 43.015 43.015 0 0 0 43.015-43.015 43.015 43.015 0 0 0-43.015-43.015zm-0.25307 21.507a21.21 21.21 0 0 1 21.209 21.21 21.21 21.21 0 0 1-21.209 21.209 21.21 21.21 0 0 1-21.209-21.209 21.21 21.21 0 0 1 21.209-21.21z" fill="#f00" stroke-width=".34761"/>
 </g>
</svg>
